<svg width="247" height="67" viewBox="0 0 247 67" fill="none" xmlns="http://www.w3.org/2000/svg"><path d="M109.08 21.2V31H108.1V22.684L104.67 28.424H104.53L101.1 22.684V31H100.12V21.2H101.338L104.6 26.66L107.862 21.2H109.08ZM117.197 24H118.121V31H117.197V29.628C116.553 30.6547 115.611 31.168 114.369 31.168C113.371 31.168 112.517 30.8133 111.807 30.104C111.107 29.3947 110.757 28.5267 110.757 27.5C110.757 26.4733 111.107 25.6053 111.807 24.896C112.517 24.1867 113.371 23.832 114.369 23.832C115.611 23.832 116.553 24.3453 117.197 25.372V24ZM112.479 29.474C113.011 30.006 113.665 30.272 114.439 30.272C115.214 30.272 115.867 30.006 116.399 29.474C116.931 28.9327 117.197 28.2747 117.197 27.5C117.197 26.7253 116.931 26.072 116.399 25.54C115.867 24.9987 115.214 24.728 114.439 24.728C113.665 24.728 113.011 24.9987 112.479 25.54C111.947 26.072 111.681 26.7253 111.681 27.5C111.681 28.2747 111.947 28.9327 112.479 29.474ZM124.558 24V24.896H121.002V31H120.078V24H124.558ZM131.43 24H132.354V31H131.43V29.628C130.786 30.6547 129.843 31.168 128.602 31.168C127.603 31.168 126.749 30.8133 126.04 30.104C125.34 29.3947 124.99 28.5267 124.99 27.5C124.99 26.4733 125.34 25.6053 126.04 24.896C126.749 24.1867 127.603 23.832 128.602 23.832C129.843 23.832 130.786 24.3453 131.43 25.372V24ZM126.712 29.474C127.244 30.006 127.897 30.272 128.672 30.272C129.446 30.272 130.1 30.006 130.632 29.474C131.164 28.9327 131.43 28.2747 131.43 27.5C131.43 26.7253 131.164 26.072 130.632 25.54C130.1 24.9987 129.446 24.728 128.672 24.728C127.897 24.728 127.244 24.9987 126.712 25.54C126.18 26.072 125.914 26.7253 125.914 27.5C125.914 28.2747 126.18 28.9327 126.712 29.474ZM137.922 27.402C138.734 27.71 139.14 28.27 139.14 29.082C139.14 29.6607 138.911 30.1553 138.454 30.566C138.006 30.9673 137.362 31.168 136.522 31.168C135.113 31.168 134.189 30.608 133.75 29.488L134.534 29.026C134.823 29.8567 135.486 30.272 136.522 30.272C137.063 30.272 137.479 30.1553 137.768 29.922C138.067 29.6887 138.216 29.39 138.216 29.026C138.216 28.6993 138.095 28.4333 137.852 28.228C137.609 28.0227 137.283 27.92 136.872 27.92H135.85V27.024H136.592C136.993 27.024 137.306 26.926 137.53 26.73C137.763 26.5247 137.88 26.2447 137.88 25.89C137.88 25.554 137.745 25.2787 137.474 25.064C137.203 24.84 136.839 24.728 136.382 24.728C135.505 24.728 134.921 25.078 134.632 25.778L133.862 25.33C134.329 24.3313 135.169 23.832 136.382 23.832C137.119 23.832 137.707 24.028 138.146 24.42C138.585 24.8027 138.804 25.274 138.804 25.834C138.804 26.5527 138.51 27.0753 137.922 27.402ZM145.64 24H146.424V31H145.5V25.61L141.328 31H140.544V24H141.468V29.39L145.64 24ZM153.334 24H154.258V31H153.334V27.948H149.302V31H148.378V24H149.302V27.052H153.334V24ZM165.592 24V31H164.668V24.896H160.636V31H159.712V24H165.592ZM172.642 24H173.426V31H172.502V25.61L168.33 31H167.546V24H168.47V29.39L172.642 24ZM179.132 23.832C180.131 23.832 180.98 24.1867 181.68 24.896C182.39 25.6053 182.744 26.4733 182.744 27.5C182.744 28.5267 182.39 29.3947 181.68 30.104C180.98 30.8133 180.131 31.168 179.132 31.168C177.891 31.168 176.948 30.6547 176.304 29.628V33.8H175.38V24H176.304V25.372C176.948 24.3453 177.891 23.832 179.132 23.832ZM177.102 29.474C177.634 30.006 178.288 30.272 179.062 30.272C179.837 30.272 180.49 30.006 181.022 29.474C181.554 28.9327 181.82 28.2747 181.82 27.5C181.82 26.7253 181.554 26.072 181.022 25.54C180.49 24.9987 179.837 24.728 179.062 24.728C178.288 24.728 177.634 24.9987 177.102 25.54C176.57 26.072 176.304 26.7253 176.304 27.5C176.304 28.2747 176.57 28.9327 177.102 29.474ZM190.147 30.118C189.437 30.818 188.569 31.168 187.543 31.168C186.516 31.168 185.643 30.818 184.925 30.118C184.215 29.4087 183.861 28.536 183.861 27.5C183.861 26.464 184.215 25.596 184.925 24.896C185.643 24.1867 186.516 23.832 187.543 23.832C188.569 23.832 189.437 24.1867 190.147 24.896C190.865 25.596 191.225 26.464 191.225 27.5C191.225 28.536 190.865 29.4087 190.147 30.118ZM185.583 29.474C186.115 30.006 186.768 30.272 187.543 30.272C188.317 30.272 188.971 30.006 189.503 29.474C190.035 28.9327 190.301 28.2747 190.301 27.5C190.301 26.7253 190.035 26.072 189.503 25.54C188.971 24.9987 188.317 24.728 187.543 24.728C186.768 24.728 186.115 24.9987 185.583 25.54C185.051 26.072 184.785 26.7253 184.785 27.5C184.785 28.2747 185.051 28.9327 185.583 29.474ZM197.538 24V24.896H195.06V31H194.136V24.896H191.658V24H197.538ZM201.624 23.832C202.66 23.832 203.495 24.2007 204.13 24.938C204.774 25.666 205.096 26.5293 205.096 27.528C205.096 27.6307 205.087 27.7753 205.068 27.962H198.922C199.015 28.6713 199.314 29.236 199.818 29.656C200.331 30.0667 200.961 30.272 201.708 30.272C202.24 30.272 202.697 30.1647 203.08 29.95C203.472 29.726 203.766 29.4367 203.962 29.082L204.774 29.558C204.466 30.0527 204.046 30.4447 203.514 30.734C202.982 31.0233 202.375 31.168 201.694 31.168C200.593 31.168 199.697 30.8227 199.006 30.132C198.315 29.4413 197.97 28.564 197.97 27.5C197.97 26.4547 198.311 25.582 198.992 24.882C199.673 24.182 200.551 23.832 201.624 23.832ZM201.624 24.728C200.896 24.728 200.285 24.9473 199.79 25.386C199.305 25.8153 199.015 26.3753 198.922 27.066H204.144C204.051 26.3287 203.766 25.7547 203.29 25.344C202.814 24.9333 202.259 24.728 201.624 24.728ZM212.173 31H211.067L208.883 28.116L206.699 31H205.593L208.337 27.374L205.774 24H206.881L208.883 26.646L210.885 24H211.991L209.443 27.374L212.173 31ZM218.385 24H219.309V31H218.385V27.948H214.353V31H213.429V24H214.353V27.052H218.385V24ZM226.359 24H227.143V31H226.219V25.61L222.047 31H221.263V24H222.187V29.39L226.359 24ZM234.753 31H233.521L230.021 27.626V31H229.097V24H230.021V27.094L233.353 24H234.613L231.001 27.36L234.753 31ZM241.111 24H241.895V31H240.971V25.61L236.799 31H236.015V24H236.939V29.39L241.111 24ZM108.534 39.384C109.402 40.0373 109.836 40.9427 109.836 42.1C109.836 43.2573 109.402 44.1627 108.534 44.816C107.675 45.4693 106.537 45.8287 105.118 45.894V47H104.138V45.894C102.719 45.8287 101.576 45.4693 100.708 44.816C99.8493 44.1627 99.42 43.2573 99.42 42.1C99.42 40.9427 99.8493 40.0373 100.708 39.384C101.576 38.7307 102.719 38.3713 104.138 38.306V37.2H105.118V38.306C106.537 38.3713 107.675 38.7307 108.534 39.384ZM101.408 40.028C100.736 40.5133 100.4 41.204 100.4 42.1C100.4 42.996 100.736 43.6913 101.408 44.186C102.08 44.6713 102.99 44.942 104.138 44.998V39.202C102.99 39.258 102.08 39.5333 101.408 40.028ZM105.118 44.998C106.266 44.942 107.176 44.6713 107.848 44.186C108.52 43.6913 108.856 42.996 108.856 42.1C108.856 41.204 108.52 40.5133 107.848 40.028C107.176 39.5333 106.266 39.258 105.118 39.202V44.998ZM114.466 39.832C115.502 39.832 116.337 40.2007 116.972 40.938C117.616 41.666 117.938 42.5293 117.938 43.528C117.938 43.6307 117.929 43.7753 117.91 43.962H111.764C111.857 44.6713 112.156 45.236 112.66 45.656C113.173 46.0667 113.803 46.272 114.55 46.272C115.082 46.272 115.539 46.1647 115.922 45.95C116.314 45.726 116.608 45.4367 116.804 45.082L117.616 45.558C117.308 46.0527 116.888 46.4447 116.356 46.734C115.824 47.0233 115.217 47.168 114.536 47.168C113.435 47.168 112.539 46.8227 111.848 46.132C111.157 45.4413 110.812 44.564 110.812 43.5C110.812 42.4547 111.153 41.582 111.834 40.882C112.515 40.182 113.393 39.832 114.466 39.832ZM114.466 40.728C113.738 40.728 113.127 40.9473 112.632 41.386C112.147 41.8153 111.857 42.3753 111.764 43.066H116.986C116.893 42.3287 116.608 41.7547 116.132 41.344C115.656 40.9333 115.101 40.728 114.466 40.728ZM120.528 38.88V38.068H124.168V38.88H120.528ZM124.504 40H125.288V47H124.364V41.61L120.192 47H119.408V40H120.332V45.39L124.504 40ZM130.476 39.832C131.512 39.832 132.347 40.2007 132.982 40.938C133.626 41.666 133.948 42.5293 133.948 43.528C133.948 43.6307 133.938 43.7753 133.92 43.962H127.774C127.867 44.6713 128.166 45.236 128.67 45.656C129.183 46.0667 129.813 46.272 130.56 46.272C131.092 46.272 131.549 46.1647 131.932 45.95C132.324 45.726 132.618 45.4367 132.814 45.082L133.626 45.558C133.318 46.0527 132.898 46.4447 132.366 46.734C131.834 47.0233 131.227 47.168 130.546 47.168C129.444 47.168 128.548 46.8227 127.858 46.132C127.167 45.4413 126.822 44.564 126.822 43.5C126.822 42.4547 127.162 41.582 127.844 40.882C128.525 40.182 129.402 39.832 130.476 39.832ZM130.476 40.728C129.748 40.728 129.136 40.9473 128.642 41.386C128.156 41.8153 127.867 42.3753 127.774 43.066H132.996C132.902 42.3287 132.618 41.7547 132.142 41.344C131.666 40.9333 131.11 40.728 130.476 40.728ZM139.17 39.832C140.168 39.832 141.018 40.1867 141.718 40.896C142.427 41.6053 142.782 42.4733 142.782 43.5C142.782 44.5267 142.427 45.3947 141.718 46.104C141.018 46.8133 140.168 47.168 139.17 47.168C137.928 47.168 136.986 46.6547 136.342 45.628V49.8H135.418V40H136.342V41.372C136.986 40.3453 137.928 39.832 139.17 39.832ZM137.14 45.474C137.672 46.006 138.325 46.272 139.1 46.272C139.874 46.272 140.528 46.006 141.06 45.474C141.592 44.9327 141.858 44.2747 141.858 43.5C141.858 42.7253 141.592 42.072 141.06 41.54C140.528 40.9987 139.874 40.728 139.1 40.728C138.325 40.728 137.672 40.9987 137.14 41.54C136.608 42.072 136.342 42.7253 136.342 43.5C136.342 44.2747 136.608 44.9327 137.14 45.474ZM148.77 43.402C149.535 43.682 149.918 44.228 149.918 45.04C149.918 45.6093 149.727 46.0807 149.344 46.454C148.971 46.818 148.429 47 147.72 47H144.318V40H147.44C148.121 40 148.649 40.1773 149.022 40.532C149.395 40.8773 149.582 41.3253 149.582 41.876C149.582 42.576 149.311 43.0847 148.77 43.402ZM147.44 40.896H145.242V43.024H147.44C148.252 43.024 148.658 42.66 148.658 41.932C148.658 41.6053 148.551 41.3533 148.336 41.176C148.131 40.9893 147.832 40.896 147.44 40.896ZM147.72 46.104C148.131 46.104 148.443 46.006 148.658 45.81C148.882 45.614 148.994 45.3387 148.994 44.984C148.994 44.6573 148.882 44.4007 148.658 44.214C148.443 44.018 148.131 43.92 147.72 43.92H145.242V46.104H147.72ZM154.552 39.832C155.588 39.832 156.423 40.2007 157.058 40.938C157.702 41.666 158.024 42.5293 158.024 43.528C158.024 43.6307 158.015 43.7753 157.996 43.962H151.85C151.943 44.6713 152.242 45.236 152.746 45.656C153.259 46.0667 153.889 46.272 154.636 46.272C155.168 46.272 155.625 46.1647 156.008 45.95C156.4 45.726 156.694 45.4367 156.89 45.082L157.702 45.558C157.394 46.0527 156.974 46.4447 156.442 46.734C155.91 47.0233 155.303 47.168 154.622 47.168C153.521 47.168 152.625 46.8227 151.934 46.132C151.243 45.4413 150.898 44.564 150.898 43.5C150.898 42.4547 151.239 41.582 151.92 40.882C152.601 40.182 153.479 39.832 154.552 39.832ZM154.552 40.728C153.824 40.728 153.213 40.9473 152.718 41.386C152.233 41.8153 151.943 42.3753 151.85 43.066H157.072C156.979 42.3287 156.694 41.7547 156.218 41.344C155.742 40.9333 155.187 40.728 154.552 40.728ZM163.246 39.832C164.244 39.832 165.094 40.1867 165.794 40.896C166.503 41.6053 166.858 42.4733 166.858 43.5C166.858 44.5267 166.503 45.3947 165.794 46.104C165.094 46.8133 164.244 47.168 163.246 47.168C162.004 47.168 161.062 46.6547 160.418 45.628V49.8H159.494V40H160.418V41.372C161.062 40.3453 162.004 39.832 163.246 39.832ZM161.216 45.474C161.748 46.006 162.401 46.272 163.176 46.272C163.95 46.272 164.604 46.006 165.136 45.474C165.668 44.9327 165.934 44.2747 165.934 43.5C165.934 42.7253 165.668 42.072 165.136 41.54C164.604 40.9987 163.95 40.728 163.176 40.728C162.401 40.728 161.748 40.9987 161.216 41.54C160.684 42.072 160.418 42.7253 160.418 43.5C160.418 44.2747 160.684 44.9327 161.216 45.474ZM174.05 47H172.818L169.318 43.626V47H168.394V40H169.318V43.094L172.65 40H173.91L170.298 43.36L174.05 47ZM180.408 40H181.192V47H180.268V41.61L176.096 47H175.312V40H176.236V45.39L180.408 40ZM184.322 46.916C184.173 47.0653 183.991 47.14 183.776 47.14C183.561 47.14 183.379 47.0653 183.23 46.916C183.081 46.7667 183.006 46.5847 183.006 46.37C183.006 46.1553 183.081 45.9733 183.23 45.824C183.379 45.6747 183.561 45.6 183.776 45.6C183.991 45.6 184.173 45.6747 184.322 45.824C184.471 45.9733 184.546 46.1553 184.546 46.37C184.546 46.5847 184.471 46.7667 184.322 46.916ZM190.125 39.832C191.123 39.832 191.973 40.1867 192.673 40.896C193.382 41.6053 193.737 42.4733 193.737 43.5C193.737 44.5267 193.382 45.3947 192.673 46.104C191.973 46.8133 191.123 47.168 190.125 47.168C188.883 47.168 187.941 46.6547 187.297 45.628V49.8H186.373V40H187.297V41.372C187.941 40.3453 188.883 39.832 190.125 39.832ZM188.095 45.474C188.627 46.006 189.28 46.272 190.055 46.272C190.829 46.272 191.483 46.006 192.015 45.474C192.547 44.9327 192.813 44.2747 192.813 43.5C192.813 42.7253 192.547 42.072 192.015 41.54C191.483 40.9987 190.829 40.728 190.055 40.728C189.28 40.728 188.627 40.9987 188.095 41.54C187.563 42.072 187.297 42.7253 187.297 43.5C187.297 44.2747 187.563 44.9327 188.095 45.474ZM202.105 41.008C202.777 41.6893 203.113 42.52 203.113 43.5C203.113 44.48 202.777 45.3107 202.105 45.992C201.433 46.6733 200.546 47.0607 199.445 47.154V49.8H198.521V47.154C197.42 47.0607 196.533 46.6733 195.861 45.992C195.189 45.3107 194.853 44.48 194.853 43.5C194.853 42.52 195.189 41.6893 195.861 41.008C196.533 40.3267 197.42 39.9393 198.521 39.846V37.2H199.445V39.846C200.546 39.9393 201.433 40.3267 202.105 41.008ZM196.519 41.652C196.024 42.156 195.777 42.772 195.777 43.5C195.777 44.228 196.024 44.8487 196.519 45.362C197.014 45.866 197.681 46.16 198.521 46.244V40.756C197.681 40.84 197.014 41.1387 196.519 41.652ZM199.445 46.244C200.285 46.16 200.952 45.866 201.447 45.362C201.942 44.8487 202.189 44.228 202.189 43.5C202.189 42.772 201.942 42.156 201.447 41.652C200.952 41.1387 200.285 40.84 199.445 40.756V46.244Z" fill="#A3A3A3"/><g clip-path="url(#clip0)" fill="#FF2828"><path d="M40.5001 26.4869C40.3528 26.4869 40.2046 26.4619 40.0615 26.4113L33.5001 24.0778L26.9382 26.4113C26.5318 26.5559 26.0799 26.4905 25.7308 26.237C25.3816 25.9829 25.1797 25.5735 25.1915 25.142L25.3832 18.1804L21.1363 12.6607C20.8731 12.3193 20.7954 11.8689 20.9288 11.4585C21.0622 11.048 21.3894 10.73 21.8034 10.6079L28.4834 8.63883L32.4205 2.89377C32.6648 2.538 33.0686 2.32535 33.5001 2.32535C33.9315 2.32535 34.3353 2.538 34.5797 2.89377L38.5167 8.63883L45.1967 10.6079C45.6108 10.73 45.9379 11.048 46.0713 11.4585C46.2047 11.8689 46.1271 12.3188 45.8638 12.6607L41.617 18.1809L41.8087 25.142C41.8204 25.5735 41.6185 25.9834 41.2694 26.237C41.0429 26.4015 40.7725 26.4869 40.5001 26.4869V26.4869ZM24.3751 12.5784L27.7412 16.9536C27.9247 17.1918 28.0203 17.4862 28.0121 17.7873L27.8603 23.3054L33.0615 21.456C33.3452 21.3553 33.655 21.3553 33.9387 21.456L39.1393 23.3054L38.988 17.7873C38.9793 17.4862 39.0754 17.1918 39.2589 16.9536L42.625 12.5784L37.3303 11.0173C37.0415 10.9325 36.791 10.7505 36.6208 10.5021L33.5001 5.94853L30.3794 10.5021C30.2091 10.7505 29.9587 10.9325 29.6699 11.0173L24.3751 12.5784Z"/><path d="M52.5749 14.4377C52.3025 14.4377 52.0321 14.3523 51.8056 14.1877C51.4565 13.9342 51.2546 13.5247 51.2668 13.0933L51.3471 10.1602L49.558 7.83436C49.2947 7.49238 49.2176 7.04255 49.3505 6.63208C49.4839 6.22161 49.811 5.90366 50.2251 5.78149L53.0396 4.95186L54.6983 2.53146C54.9427 2.17517 55.3465 1.96252 55.7779 1.96252C56.2094 1.96252 56.6132 2.17517 56.8575 2.53146L58.5163 4.95186L61.3303 5.78149C61.7443 5.90366 62.0715 6.22161 62.2054 6.63208C62.3383 7.04255 62.2611 7.49238 61.9979 7.83436L60.2083 10.1602L60.289 13.0933C60.3013 13.5247 60.0994 13.9342 59.7503 14.1877C59.4011 14.4413 58.9492 14.5062 58.5429 14.362L55.7779 13.379L53.0135 14.362C52.8704 14.4126 52.7222 14.4377 52.5749 14.4377V14.4377ZM55.7779 10.6816C55.9262 10.6816 56.0744 10.7066 56.216 10.7572L57.6202 11.2561L57.5793 9.76659C57.5706 9.46551 57.6667 9.17107 57.8502 8.93287L58.7586 7.75155L57.3293 7.33034C57.041 7.24549 56.7901 7.06351 56.6198 6.81508L55.7774 5.58571L54.935 6.81508C54.7648 7.06351 54.5143 7.24498 54.2255 7.33034L52.7963 7.75155L53.7051 8.93287C53.8881 9.17107 53.9842 9.46551 53.9755 9.76659L53.9347 11.2561L55.3388 10.7572C55.4815 10.7066 55.6292 10.6816 55.7779 10.6816V10.6816Z"/><path d="M14.4251 14.4377C14.2779 14.4377 14.1297 14.4126 13.9865 14.362L11.2221 13.379L8.4577 14.362C8.0508 14.5067 7.59944 14.4413 7.2498 14.1877C6.90067 13.9342 6.69926 13.5247 6.71102 13.0933L6.79179 10.1602L5.00217 7.83436C4.73892 7.49238 4.66173 7.04255 4.79515 6.63208C4.92856 6.2211 5.25571 5.90315 5.66976 5.78098L8.48376 4.95135L10.1425 2.53095C10.3869 2.17517 10.7907 1.96252 11.2221 1.96252C11.6535 1.96252 12.0574 2.17517 12.3017 2.53095L13.9605 4.95135L16.7745 5.78149C17.1885 5.90315 17.5157 6.22161 17.6491 6.63208C17.7825 7.04255 17.7048 7.49238 17.4421 7.83436L15.6524 10.1597L15.7332 13.0928C15.745 13.5242 15.5436 13.9342 15.1944 14.1877C14.968 14.3523 14.6981 14.4377 14.4251 14.4377ZM11.2221 10.6816C11.3704 10.6816 11.5191 10.7066 11.6607 10.7572L13.0649 11.2561L13.024 9.76659C13.0153 9.46551 13.1114 9.17107 13.2944 8.93287L14.2033 7.75155L12.774 7.33034C12.4852 7.24549 12.2347 7.06351 12.0645 6.81508L11.2221 5.58571L10.3797 6.81508C10.2095 7.06351 9.95901 7.24498 9.6702 7.33034L8.24096 7.75155L9.14982 8.93287C9.33333 9.17107 9.42892 9.46551 9.42074 9.76659L9.37985 11.2561L10.784 10.7572C10.9256 10.7066 11.0739 10.6816 11.2221 10.6816Z"/><path d="M33.5005 56.0737C33.4156 56.0737 33.3293 56.0645 33.2454 56.0476C33.1616 56.0318 33.0793 56.0057 33.0006 55.973C32.9208 55.9403 32.8447 55.8994 32.7741 55.8523C32.702 55.8053 32.6356 55.7506 32.5753 55.6903C32.515 55.63 32.4603 55.5635 32.4132 55.4914C32.3657 55.4209 32.3253 55.3447 32.2926 55.265C32.2599 55.1863 32.2338 55.104 32.218 55.0201C32.2011 54.9363 32.1919 54.8499 32.1919 54.7651C32.1919 54.6802 32.2011 54.5938 32.218 54.51C32.2338 54.4262 32.2599 54.3439 32.2926 54.2641C32.3253 54.1854 32.3657 54.1092 32.4132 54.0387C32.4603 53.9666 32.515 53.9002 32.5753 53.8399C32.6356 53.7795 32.702 53.7248 32.7741 53.6778C32.8447 53.6303 32.9208 53.5899 33.0006 53.5572C33.0793 53.5245 33.1616 53.4994 33.2454 53.4825C33.4141 53.4488 33.5869 53.4488 33.7556 53.4825C33.8394 53.4994 33.9217 53.5245 34.0004 53.5572C34.0802 53.5899 34.1558 53.6303 34.2264 53.6778C34.2984 53.7248 34.3654 53.7795 34.4257 53.8399C34.486 53.9002 34.5407 53.9666 34.5878 54.0387C34.6348 54.1092 34.6757 54.1854 34.7084 54.2641C34.7411 54.3439 34.7672 54.4262 34.7825 54.51C34.7999 54.5938 34.8091 54.6802 34.8091 54.7651C34.8091 54.8499 34.7999 54.9368 34.7825 55.0201C34.7657 55.104 34.7411 55.1863 34.7084 55.265C34.6757 55.3447 34.6348 55.4209 34.5878 55.4914C34.5407 55.5635 34.486 55.63 34.4257 55.6903C34.3654 55.7506 34.2984 55.8053 34.2264 55.8523C34.1558 55.8994 34.0802 55.9403 34.0004 55.973C33.9217 56.0057 33.8394 56.0318 33.7556 56.0476C33.6717 56.0645 33.5854 56.0737 33.5005 56.0737Z"/><path d="M33.5005 51.7553C32.7777 51.7553 32.1919 51.1695 32.1919 50.4467V28.8543C32.1919 28.132 32.7777 27.5457 33.5005 27.5457C34.2233 27.5457 34.8091 28.132 34.8091 28.8543V50.4467C34.8091 51.1689 34.2233 51.7553 33.5005 51.7553Z"/><path d="M55.7133 43.4168C55.6448 43.4168 55.5768 43.4117 55.5083 43.4004C55.082 43.3329 54.7165 43.06 54.531 42.6699L52.1791 37.7223L47.2319 35.3704C46.8419 35.1854 46.5684 34.8199 46.501 34.3936C46.4335 33.9672 46.5807 33.5348 46.8941 33.2383L50.8725 29.473L51.5805 24.0408C51.6362 23.613 51.8995 23.2398 52.2839 23.044C52.6688 22.8477 53.1247 22.8544 53.504 23.0609L58.3147 25.6806L63.6994 24.6757C64.1236 24.5959 64.5597 24.7314 64.8648 25.0366C65.17 25.3417 65.305 25.7778 65.2262 26.202L64.2208 31.5867L66.841 36.3974C67.047 36.7766 67.0537 37.2331 66.8574 37.6175C66.6616 38.0019 66.2884 38.2652 65.8606 38.3209L60.4289 39.0289L56.6631 43.0073C56.4141 43.2711 56.0696 43.4168 55.7133 43.4168V43.4168ZM50.0797 33.8267L53.7233 35.5585C53.9948 35.6879 54.214 35.9066 54.3434 36.1786L56.0752 39.8217L58.8478 36.8922C59.0548 36.6734 59.3309 36.5328 59.6294 36.494L63.6293 35.9726L61.6997 32.4302C61.556 32.1659 61.5075 31.8602 61.5627 31.5642L62.3028 27.5986L58.3377 28.3392C58.0417 28.3939 57.736 28.3459 57.4717 28.2017L53.9288 26.2726L53.4079 30.2725C53.3691 30.571 53.2285 30.8471 53.0097 31.0536L50.0797 33.8267Z"/><path d="M35.81 65.2162C35.7645 65.2162 35.7195 65.2142 35.6735 65.2096C34.9548 65.1349 34.4324 64.4919 34.5065 63.7732C35.3643 55.4758 39.3591 49.1726 42.5595 45.3459C46.0155 41.2126 49.284 39.0161 49.421 38.9246C50.0226 38.5243 50.8349 38.6869 51.2356 39.289C51.6359 39.8902 51.4728 40.7029 50.8712 41.1032C50.747 41.186 47.7832 43.1785 44.5669 47.0246C41.6011 50.5716 37.8992 56.4031 37.1099 64.0425C37.0404 64.7153 36.472 65.2162 35.81 65.2162V65.2162Z"/><path d="M11.2866 43.4168C10.9303 43.4168 10.5858 43.2711 10.3364 43.0079L6.57107 39.0294L1.13885 38.3215C0.710995 38.2657 0.337839 38.0025 0.14206 37.6176C-0.0537186 37.2332 -0.0475845 36.7767 0.158929 36.3979L2.77869 31.5873L1.77372 26.2021C1.69398 25.7778 1.82944 25.3418 2.13461 25.0366C2.43978 24.7314 2.87581 24.596 3.30008 24.6757L8.68477 25.6812L13.4954 23.0609C13.8747 22.8544 14.3312 22.8483 14.7156 23.0441C15.1 23.2398 15.3632 23.613 15.4189 24.0409L16.1269 29.4731L20.1059 33.2384C20.4192 33.5354 20.5659 33.9673 20.4985 34.3936C20.431 34.8199 20.1575 35.1854 19.768 35.371L14.8204 37.7229L12.469 42.67C12.2834 43.0595 11.9179 43.333 11.4916 43.4005C11.4231 43.4117 11.3546 43.4168 11.2866 43.4168V43.4168ZM3.37062 35.9726L7.37054 36.494C7.66907 36.5329 7.9451 36.6734 8.15162 36.8922L10.9247 39.8217L12.6566 36.1786C12.7859 35.9067 13.0047 35.6879 13.2766 35.5586L16.9197 33.8267L13.9902 31.0536C13.7714 30.8471 13.6309 30.5711 13.592 30.2725L13.0706 26.2726L9.5282 28.2023C9.26393 28.3459 8.95773 28.3945 8.66228 28.3393L4.6966 27.5991L5.43678 31.5643C5.4925 31.8602 5.44394 32.1664 5.29979 32.4302L3.37062 35.9726Z"/><path d="M31.1912 65.2162C30.5287 65.2162 29.9608 64.7153 29.8913 64.0421C29.1015 56.4026 25.4001 50.5717 22.4343 47.0246C19.2195 43.1806 16.2542 41.186 16.1295 41.1032C15.5278 40.7025 15.3648 39.8897 15.7655 39.2886C16.1663 38.6869 16.9785 38.5239 17.5802 38.9246C17.7177 39.0161 20.9877 41.2152 24.4416 45.346C27.6421 49.1726 31.6369 55.4759 32.4947 63.7732C32.5688 64.4919 32.0464 65.135 31.3271 65.2091C31.2816 65.2142 31.2361 65.2162 31.1912 65.2162Z"/><path d="M43.7808 64.9722C43.5983 64.9722 43.4127 64.9338 43.2359 64.8531C42.579 64.5515 42.2907 63.775 42.5923 63.1176C44.59 58.7619 47.9197 56.0742 50.3611 54.5862C52.9481 53.0092 55.0501 52.4239 55.2811 52.3621C55.9799 52.176 56.6965 52.5911 56.8826 53.2893C57.0687 53.9876 56.6536 54.7048 55.9553 54.8908C55.9364 54.896 54.0344 55.4122 51.7228 56.821C49.5933 58.1189 46.6929 60.4544 44.9708 64.209C44.751 64.689 44.2766 64.9722 43.7808 64.9722V64.9722Z"/><path d="M24.4605 64.9722C23.9646 64.9722 23.4903 64.689 23.27 64.209C21.5483 60.4544 18.6479 58.1189 16.5179 56.821C14.2069 55.4122 12.3043 54.896 12.2854 54.8908C11.5871 54.7043 11.172 53.9876 11.3586 53.2893C11.5447 52.5911 12.2619 52.176 12.9601 52.3621C13.1917 52.4239 15.2941 53.0102 17.8802 54.5862C20.3215 56.0742 23.6513 58.7619 25.649 63.1176C25.9505 63.775 25.6622 64.5515 25.0049 64.8531C24.828 64.9338 24.643 64.9722 24.4605 64.9722Z"/><path d="M60.96 48.3512C60.2377 48.3512 59.6514 47.7654 59.6514 47.0426V45.9533C59.6514 45.2305 60.2377 44.6447 60.96 44.6447C61.6828 44.6447 62.2686 45.2305 62.2686 45.9533V47.0426C62.2686 47.7654 61.6828 48.3512 60.96 48.3512V48.3512Z"/><path d="M60.96 54.2598C60.2377 54.2598 59.6514 53.6735 59.6514 52.9512V51.8614C59.6514 51.1391 60.2377 50.5528 60.96 50.5528C61.6828 50.5528 62.2686 51.1391 62.2686 51.8614V52.9512C62.2686 53.6735 61.6828 54.2598 60.96 54.2598Z"/><path d="M64.4594 50.7606H63.3701C62.6478 50.7606 62.0615 50.1743 62.0615 49.452C62.0615 48.7292 62.6478 48.1434 63.3701 48.1434H64.4594C65.1822 48.1434 65.768 48.7292 65.768 49.452C65.768 50.1743 65.1822 50.7606 64.4594 50.7606V50.7606Z"/><path d="M58.5512 50.7606H57.4619C56.7391 50.7606 56.1533 50.1743 56.1533 49.452C56.1533 48.7292 56.7391 48.1434 57.4619 48.1434H58.5512C59.274 48.1434 59.8598 48.7292 59.8598 49.452C59.8598 50.1743 59.274 50.7606 58.5512 50.7606V50.7606Z"/><path d="M6.03956 48.3512C5.31676 48.3512 4.73096 47.7654 4.73096 47.0426V45.9533C4.73096 45.2305 5.31676 44.6447 6.03956 44.6447C6.76235 44.6447 7.34816 45.2305 7.34816 45.9533V47.0426C7.34816 47.7654 6.76235 48.3512 6.03956 48.3512V48.3512Z"/><path d="M6.03956 54.2598C5.31676 54.2598 4.73096 53.6735 4.73096 52.9512V51.8614C4.73096 51.1391 5.31676 50.5528 6.03956 50.5528C6.76235 50.5528 7.34816 51.1391 7.34816 51.8614V52.9512C7.34816 53.6735 6.76235 54.2598 6.03956 54.2598Z"/><path d="M9.53853 50.7606H8.44922C7.72643 50.7606 7.14062 50.1743 7.14062 49.452C7.14062 48.7292 7.72643 48.1434 8.44922 48.1434H9.53853C10.2613 48.1434 10.8471 48.7292 10.8471 49.452C10.8471 50.1743 10.2613 50.7606 9.53853 50.7606Z"/><path d="M3.63035 50.7606H2.54053C1.81825 50.7606 1.23193 50.1743 1.23193 49.452C1.23193 48.7292 1.81825 48.1434 2.54053 48.1434H3.63035C4.35315 48.1434 4.93896 48.7292 4.93896 49.452C4.93896 50.1743 4.35315 50.7606 3.63035 50.7606Z"/></g><defs><clipPath id="clip0"><path fill="#fff" d="M0 0H67V67H0z"/></clipPath></defs></svg>