<svg width="32" height="32" viewBox="0 0 32 32" fill="none" xmlns="http://www.w3.org/2000/svg"><path d="M27 1.0666H19.25C16.493 1.0666 14.25 3.3096 14.25 6.06661V8.56661C14.25 9.25698 14.8096 9.8166 15.5 9.8166C16.1904 9.8166 16.75 9.25698 16.75 8.56661V6.06661C16.75 4.6881 17.8715 3.5666 19.25 3.5666H27C28.3785 3.5666 29.5 4.6881 29.5 6.06661V25.9333C29.5 27.3118 28.3785 28.4333 27 28.4333H19.25C17.8715 28.4333 16.75 27.3118 16.75 25.9333V23.4333C16.75 22.7429 16.1904 22.1833 15.5 22.1833C14.8096 22.1833 14.25 22.7429 14.25 23.4333V25.9333C14.25 28.6903 16.493 30.9333 19.25 30.9333H27C29.757 30.9333 32 28.6903 32 25.9333V6.06661C32 3.3096 29.757 1.0666 27 1.0666Z" fill="#95CECE"/><path d="M25.495 13.3479L20.821 8.67818C20.3326 8.19024 19.5411 8.19062 19.0532 8.67899C18.5653 9.16737 18.5656 9.95881 19.054 10.4467L23.7276 15.1161C24.215 15.6034 24.215 16.3964 23.7276 16.8838C23.7258 16.8856 23.724 16.8875 23.7222 16.8893L19.0482 21.6216C18.5631 22.1128 18.568 22.9042 19.0591 23.3893C19.3027 23.6299 19.6201 23.75 19.9375 23.75C20.26 23.75 20.5823 23.6259 20.8268 23.3784L25.4985 18.6486C26.9576 17.1862 26.9565 14.8095 25.495 13.3479Z" fill="#95CECE"/><path d="M19.0625 14.75H5.75C5.05963 14.75 4.5 15.3096 4.5 16C4.5 16.6904 5.05963 17.25 5.75 17.25H19.0625C19.7529 17.25 20.3125 16.6904 20.3125 16C20.3125 15.3096 19.7529 14.75 19.0625 14.75Z" fill="#95CECE"/></svg>