<svg width="30" height="20" viewBox="0 0 30 20" fill="none" xmlns="http://www.w3.org/2000/svg">
<path d="M29.8169 9.55813L20.4419 0.183129C20.2624 0.00488651 19.9957 -0.0494301 19.7607 0.0476012C19.527 0.144046 19.375 0.372328 19.375 0.624984V1.87496C19.375 2.04096 19.4409 2.19969 19.5581 2.31688L25.9913 8.75H0.62502C0.279551 8.75006 0 9.02955 0 9.37502V10.625C0 10.9705 0.279551 11.25 0.62502 11.25H25.9913L19.5581 17.6831C19.4409 17.8003 19.375 17.959 19.375 18.1251V19.375C19.375 19.6278 19.527 19.856 19.7607 19.9524C19.8383 19.9848 19.9194 20.0001 20 20.0001C20.1623 20.0001 20.3222 19.9366 20.4419 19.817L29.8169 10.442C30.0611 10.1978 30.0611 9.80229 29.8169 9.55813Z" fill="white"/>
</svg>
