<svg width="30" height="20" viewBox="0 0 30 20" fill="none" xmlns="http://www.w3.org/2000/svg">
<path d="M0.183105 9.55813L9.55811 0.183129C9.73758 0.00488651 10.0043 -0.0494301 10.2393 0.0476012C10.473 0.144046 10.625 0.372328 10.625 0.624984V1.87496C10.625 2.04096 10.5591 2.19969 10.4419 2.31688L4.00875 8.75H29.375C29.7204 8.75006 30 9.02955 30 9.37502V10.625C30 10.9705 29.7204 11.25 29.375 11.25H4.00875L10.4419 17.6831C10.5591 17.8003 10.625 17.959 10.625 18.1251V19.375C10.625 19.6278 10.473 19.856 10.2393 19.9524C10.1617 19.9848 10.0806 20.0001 10 20.0001C9.83766 20.0001 9.67775 19.9366 9.55811 19.817L0.183105 10.442C-0.0610542 10.1978 -0.0610542 9.80229 0.183105 9.55813Z" fill="white"/>
</svg>
