<svg width="34" height="34" viewBox="0 0 34 34" fill="none" xmlns="http://www.w3.org/2000/svg">
<path d="M10.9544 21.9809H10.956C10.9573 21.9809 10.9586 21.9806 10.9599 21.9806H29.0195C29.4641 21.9806 29.8551 21.6857 29.9772 21.2582L33.9616 7.31285C34.0475 7.01221 33.9873 6.689 33.7992 6.43945C33.6109 6.18991 33.3165 6.04309 33.0039 6.04309H8.6572L7.94514 2.83873C7.84372 2.38297 7.43958 2.05872 6.97266 2.05872H0.996094C0.445908 2.05872 0 2.50462 0 3.05481C0 3.605 0.445908 4.0509 0.996094 4.0509H6.17371C6.29977 4.61873 9.58118 19.3853 9.77002 20.2348C8.71141 20.695 7.96875 21.7505 7.96875 22.9767C7.96875 24.6244 9.30933 25.965 10.957 25.965H29.0195C29.5697 25.965 30.0156 25.5191 30.0156 24.9689C30.0156 24.4187 29.5697 23.9728 29.0195 23.9728H10.957C10.4079 23.9728 9.96094 23.5258 9.96094 22.9767C9.96094 22.4283 10.4063 21.9821 10.9544 21.9809ZM31.6833 8.03528L28.2681 19.9884H11.756L9.09973 8.03528H31.6833Z" fill="white"/>
<path d="M9.96094 28.9531C9.96094 30.6008 11.3015 31.9414 12.9492 31.9414C14.5969 31.9414 15.9375 30.6008 15.9375 28.9531C15.9375 27.3054 14.5969 25.9648 12.9492 25.9648C11.3015 25.9648 9.96094 27.3054 9.96094 28.9531ZM12.9492 27.957C13.4984 27.957 13.9453 28.404 13.9453 28.9531C13.9453 29.5023 13.4984 29.9492 12.9492 29.9492C12.4001 29.9492 11.9531 29.5023 11.9531 28.9531C11.9531 28.404 12.4001 27.957 12.9492 27.957Z" fill="white"/>
<path d="M24.0391 28.9531C24.0391 30.6008 25.3796 31.9414 27.0273 31.9414C28.675 31.9414 30.0156 30.6008 30.0156 28.9531C30.0156 27.3054 28.675 25.9648 27.0273 25.9648C25.3796 25.9648 24.0391 27.3054 24.0391 28.9531ZM27.0273 27.957C27.5765 27.957 28.0234 28.404 28.0234 28.9531C28.0234 29.5023 27.5765 29.9492 27.0273 29.9492C26.4782 29.9492 26.0312 29.5023 26.0312 28.9531C26.0312 28.404 26.4782 27.957 27.0273 27.957Z" fill="white"/>
</svg>
